<?xml version="1.0" encoding="UTF-8" standalone="no"?>
<svg
   xmlns:dc="http://purl.org/dc/elements/1.1/"
   xmlns:cc="http://creativecommons.org/ns#"
   xmlns:rdf="http://www.w3.org/1999/02/22-rdf-syntax-ns#"
   xmlns:svg="http://www.w3.org/2000/svg"
   xmlns="http://www.w3.org/2000/svg"
   xmlns:sodipodi="http://sodipodi.sourceforge.net/DTD/sodipodi-0.dtd"
   xmlns:inkscape="http://www.inkscape.org/namespaces/inkscape"
   viewBox="0 0 1199.0128 427.60475"
   version="1.1"
   id="svg6"
   sodipodi:docname="logo.svg"
   inkscape:version="0.92.4 5da689c313, 2019-01-14"
   width="119.90128"
   height="42.760475"
   inkscape:export-filename="/home/adux/Dropbox/Acro Züri Verein/media/website_photos/Logo/logo.png"
   inkscape:export-xdpi="96"
   inkscape:export-ydpi="96">
  <metadata
     id="metadata12">
    <rdf:RDF>
      <cc:Work
         rdf:about="">
        <dc:format>image/svg+xml</dc:format>
        <dc:type
           rdf:resource="http://purl.org/dc/dcmitype/StillImage" />
        <dc:title></dc:title>
      </cc:Work>
    </rdf:RDF>
  </metadata>
  <defs
     id="defs10">
    <pattern
       patternUnits="userSpaceOnUse"
       width="119.90128"
       height="42.760477"
       patternTransform="matrix(9.9999998,0,0,9.9999998,20.203488,42.198234)"
       id="pattern1038">
      <g
         id="g922"
         transform="matrix(0.1,0,0,0.1,-2.0203488,-4.2198235)">
        <path
           id="path4"
           d="m 134.924,42.201 c -8.034,0.11 -27.397,3.323 -49.424,6.893 l 7.604,22.027 c 43.938,-5.873 43.678,-7.054 46.89,-2.572 32.14,44.839 59.603,88.148 74.676,135.023 32.603,2.41 71.533,9.14 98.31,23.852 34.083,-36.34 89.673,-55.812 135.497,-71.701 12.157,-4.216 25.246,7.4 42.47,10.068 l 4.848,-17.264 c -4.872,-6.815 -27.807,-16.587 -37.338,-16.718 -4.035,-0.056 -15.496,3.15 -18.969,4.341 -56.98,11.002 -103.367,13.182 -162.199,32.575 -37.228,-37.914 -76.205,-75.414 -120.932,-113.803 -9.238,-7.93 -9.691,-12.88 -21.433,-12.72 z m 83.87,179.617 c -14.884,26.18 -24.332,32.5 -44.718,46.17 -17.912,-4.68 -35.784,-9.45 -56.758,-6.986 -21.017,-2.805 -29.586,4.975 -55.086,13.9 -7.727,-2.6 -16.961,0.997 -22.898,3.528 -9.757,4.976 -21.342,12.282 -18.766,24.588 3.949,12.712 20.223,8.898 27.655,5.703 6.245,-2.98 12.055,-8.777 16.357,-13.34 21.38,0.569 30.874,-0.128 52.988,-9.912 16.743,6.801 37.917,9.505 56.895,9.972 a 57.14,57.14 0 0 1 3.607,-2.476 c 10.976,-6.9 24.287,-9.537 36.313,-4.77 12.025,4.768 19.744,15.743 22.773,28.196 1.789,7.352 2.081,15.356 0.856,23.539 4.75,13.328 8.36,25.571 16.906,41.912 -5.193,22.78 -3.544,45.283 -2.262,68.342 l -22.781,8.55 -4.34,11.069 h 70.213 l -8.137,-11.903 -16.369,-8.257 c 3.504,-23.007 9.628,-45.75 6.246,-69.446 0.55,-17.704 -5.289,-35.407 -8.748,-53.111 21.304,-26.239 10.374,-44.741 25.3,-73.287 a 112.733,112.733 0 0 1 7.216,-11.918 c -27.363,-11.34 -54.484,-18.839 -82.461,-20.063 z m -18.15,81.842 c -4.054,0.12 -8.442,1.56 -12.992,4.42 -7.278,4.576 -14.383,12.805 -18.76,23.463 -4.376,10.658 -5.073,21.43 -3.064,29.687 2.009,8.258 6.29,13.613 12.037,15.891 5.747,2.278 12.612,1.343 19.89,-3.232 7.28,-4.576 14.386,-12.807 18.763,-23.465 4.376,-10.658 5.071,-21.428 3.062,-29.686 -2.009,-8.258 -6.289,-13.614 -12.035,-15.892 -2.155,-0.855 -4.468,-1.258 -6.9,-1.186 z"
           inkscape:connector-curvature="0"
           style="fill:#000000" />
        <text
           id="text824"
           y="351.45764"
           x="340.61017"
           style="font-style:normal;font-variant:normal;font-weight:normal;font-stretch:normal;font-size:192px;line-height:1.25;font-family:Zurich;-inkscape-font-specification:'Zurich, Normal';font-variant-ligatures:normal;font-variant-caps:normal;font-variant-numeric:normal;font-feature-settings:normal;text-align:start;letter-spacing:0px;word-spacing:0px;writing-mode:lr-tb;text-anchor:start;fill:#000000;fill-opacity:1;stroke:none"
           xml:space="preserve"><tspan
             style="font-style:normal;font-variant:normal;font-weight:normal;font-stretch:normal;font-size:192px;font-family:Zurich;-inkscape-font-specification:'Zurich, Normal';font-variant-ligatures:normal;font-variant-caps:normal;font-variant-numeric:normal;font-feature-settings:normal;text-align:start;writing-mode:lr-tb;text-anchor:start"
             y="351.45764"
             x="340.61017"
             id="tspan822"
             sodipodi:role="line">Acro</tspan><tspan
             id="tspan826"
             y="591.45764"
             x="340.61017"
             sodipodi:role="line" /></text>
        <text
           id="text830"
           y="354.00323"
           x="833.71631"
           style="font-style:normal;font-variant:normal;font-weight:normal;font-stretch:normal;font-size:192px;line-height:1.25;font-family:Zurich;-inkscape-font-specification:'Zurich, Normal';font-variant-ligatures:normal;font-variant-caps:normal;font-variant-numeric:normal;font-feature-settings:normal;text-align:start;letter-spacing:0px;word-spacing:0px;writing-mode:lr-tb;text-anchor:start;fill:#3a77c8;fill-opacity:1;stroke:none"
           xml:space="preserve"><tspan
             y="354.00323"
             x="833.71631"
             id="tspan828"
             sodipodi:role="line">Züri</tspan><tspan
             id="tspan832"
             y="594.00323"
             x="833.71631"
             sodipodi:role="line" /></text>
      </g>
    </pattern>
  </defs>
  <sodipodi:namedview
     pagecolor="#ffffff"
     bordercolor="#666666"
     borderopacity="1"
     objecttolerance="10"
     gridtolerance="10"
     guidetolerance="10"
     inkscape:pageopacity="0"
     inkscape:pageshadow="2"
     inkscape:window-width="2560"
     inkscape:window-height="1387"
     id="namedview8"
     showgrid="false"
     inkscape:zoom="8"
     inkscape:cx="51.832016"
     inkscape:cy="48.462436"
     inkscape:window-x="0"
     inkscape:window-y="53"
     inkscape:window-maximized="0"
     inkscape:current-layer="g875"
     scale-x="10"
     inkscape:pagecheckerboard="true" />
  <g
     id="g875"
     transform="translate(-20.203488,-42.198234)">
    <rect
       style="fill:none;stroke:none;stroke-width:148;stroke-miterlimit:4;stroke-dasharray:none"
       width="1199.0128"
       height="427.60477"
       x="20.203487"
       y="42.198235"
       id="rect1048" />
    <path
       id="path2507"
       d="m 134.924,42.201 c -8.034,0.11 -27.397,3.323 -49.424,6.893 l 7.604,22.027 c 43.938,-5.873 43.678,-7.054 46.89,-2.572 32.14,44.839 59.603,88.148 74.676,135.023 32.603,2.41 71.533,9.14 98.31,23.852 34.083,-36.34 89.673,-55.812 135.497,-71.701 12.157,-4.216 25.246,7.4 42.47,10.068 l 4.848,-17.264 c -4.872,-6.815 -27.807,-16.587 -37.338,-16.718 -4.035,-0.056 -15.496,3.15 -18.969,4.341 -56.98,11.002 -103.367,13.182 -162.199,32.575 -37.228,-37.914 -76.205,-75.414 -120.932,-113.803 -9.238,-7.93 -9.691,-12.88 -21.433,-12.72 z m 83.87,179.617 c -14.884,26.18 -24.332,32.5 -44.718,46.17 -17.912,-4.68 -35.784,-9.45 -56.758,-6.986 -21.017,-2.805 -29.586,4.975 -55.086,13.9 -7.727,-2.6 -16.961,0.997 -22.898,3.528 -9.757,4.976 -21.342,12.282 -18.766,24.588 3.949,12.712 20.223,8.898 27.655,5.703 6.245,-2.98 12.055,-8.777 16.357,-13.34 21.38,0.569 30.874,-0.128 52.988,-9.912 16.743,6.801 37.917,9.505 56.895,9.972 a 57.14,57.14 0 0 1 3.607,-2.476 c 10.976,-6.9 24.287,-9.537 36.313,-4.77 12.025,4.768 19.744,15.743 22.773,28.196 1.789,7.352 2.081,15.356 0.856,23.539 4.75,13.328 8.36,25.571 16.906,41.912 -5.193,22.78 -3.544,45.283 -2.262,68.342 l -22.781,8.55 -4.34,11.069 h 70.213 l -8.137,-11.903 -16.369,-8.257 c 3.504,-23.007 9.628,-45.75 6.246,-69.446 0.55,-17.704 -5.289,-35.407 -8.748,-53.111 21.304,-26.239 10.374,-44.741 25.3,-73.287 a 112.733,112.733 0 0 1 7.216,-11.918 c -27.363,-11.34 -54.484,-18.839 -82.461,-20.063 z m -18.15,81.842 c -4.054,0.12 -8.442,1.56 -12.992,4.42 -7.278,4.576 -14.383,12.805 -18.76,23.463 -4.376,10.658 -5.073,21.43 -3.064,29.687 2.009,8.258 6.29,13.613 12.037,15.891 5.747,2.278 12.612,1.343 19.89,-3.232 7.28,-4.576 14.386,-12.807 18.763,-23.465 4.376,-10.658 5.071,-21.428 3.062,-29.686 -2.009,-8.258 -6.289,-13.614 -12.035,-15.892 -2.155,-0.855 -4.468,-1.258 -6.9,-1.186 z"
       inkscape:connector-curvature="0"
       style="fill:#ffffff" />
    <g
       aria-label="Acro
"
       style="font-style:normal;font-variant:normal;font-weight:normal;font-stretch:normal;font-size:192px;line-height:1.25;font-family:Zurich;-inkscape-font-specification:'Zurich, Normal';font-variant-ligatures:normal;font-variant-caps:normal;font-variant-numeric:normal;font-feature-settings:normal;text-align:start;letter-spacing:0px;word-spacing:0px;writing-mode:lr-tb;text-anchor:start;fill:#ffffff;fill-opacity:1;stroke:none"
       id="text2513">
      <path
         inkscape:connector-curvature="0"
         id="path2536"
         style="font-style:normal;font-variant:normal;font-weight:normal;font-stretch:normal;font-size:192px;font-family:Zurich;-inkscape-font-specification:'Zurich, Normal';font-variant-ligatures:normal;font-variant-caps:normal;font-variant-numeric:normal;font-feature-settings:normal;text-align:start;writing-mode:lr-tb;text-anchor:start;fill:#ffffff"
         d="m 744.20392,303.08264 q 0,16.3125 4.21875,23.53125 4.21875,7.21875 13.6875,7.21875 9.46875,0 13.6875,-7.125 4.3125,-7.21875 4.3125,-23.625 0,-16.40625 -4.3125,-23.625 -4.21875,-7.3125 -13.6875,-7.3125 -9.375,0 -13.6875,7.3125 -4.21875,7.21875 -4.21875,23.625 z m -37.40625,0.1875 q 0,-24.28125 14.34375,-37.5 14.4375,-13.21875 41.15625,-13.21875 26.53125,0 40.875,13.21875 14.4375,13.125 14.4375,37.5 0,24.375 -14.4375,37.59375 -14.34375,13.125 -40.875,13.125 -26.71875,0 -41.15625,-13.21875 -14.34375,-13.21875 -14.34375,-37.5 z m -79.59375,48.1875 v -75.46875 q 0,-3.375 -0.375,-8.34375 -0.375,-4.96875 -1.125,-12.5625 h 35.90625 v 19.40625 q 3.9375,-10.125 11.71875,-15 7.78125,-4.96875 19.78125,-4.96875 h 2.625 v 30.65625 q -1.96875,-0.1875 -4.125,-0.28125 -2.0625,-0.0937 -5.625,-0.0937 -10.59375,0 -16.96875,6.1875 -6.28125,6.09375 -6.28125,16.5 v 43.96875 z m -19.3125,-37.03125 q -0.5625,18.09375 -14.0625,28.78125 -13.40625,10.59375 -36,10.59375 -24.1875,0 -37.6875,-13.59375 -13.40625,-13.59375 -13.40625,-38.0625 0,-23.53125 13.59375,-36.46875 13.6875,-12.9375 38.625,-12.9375 22.3125,0 34.96875,9.65625 12.75,9.65625 13.03125,26.625 h -35.53125 q 0,-8.0625 -3.28125,-12.28125 -3.28125,-4.21875 -9.5625,-4.21875 -7.6875,0 -11.53125,7.5 -3.84375,7.40625 -3.84375,22.125 0,16.40625 3.65625,23.71875 3.65625,7.3125 11.71875,7.3125 6.375,0 9.5625,-4.6875 3.28125,-4.6875 3.28125,-14.0625 z m -172.59375,-16.5 -17.53125,-57.65625 -19.21875,57.65625 z m -92.8125,53.53125 53.4375,-138.28125 h 46.59375 l 54.5625,138.28125 h -42.84375 l -9.5625,-27.09375 h -54.375 l -9.5625,27.09375 z" />
    </g>
    <g
       aria-label="Züri
"
       style="font-style:normal;font-variant:normal;font-weight:normal;font-stretch:normal;font-size:192px;line-height:1.25;font-family:Zurich;-inkscape-font-specification:'Zurich, Normal';font-variant-ligatures:normal;font-variant-caps:normal;font-variant-numeric:normal;font-feature-settings:normal;text-align:start;letter-spacing:0px;word-spacing:0px;writing-mode:lr-tb;text-anchor:start;fill:#3a77c8;fill-opacity:1;stroke:none"
       id="text2519">
      <path
         inkscape:connector-curvature="0"
         id="path2546"
         d="m 1182.7476,241.50323 v -25.78125 h 36.4687 v 25.78125 z m 0.5625,112.5 v -96.375 h 35.5312 v 96.375 z m -84.375,0 v -75.46875 q 0,-3.375 -0.375,-8.34375 -0.375,-4.96875 -1.125,-12.5625 h 35.9062 v 19.40625 q 3.9375,-10.125 11.7188,-15 7.7812,-4.96875 19.7812,-4.96875 h 2.625 v 30.65625 q -1.9687,-0.1875 -4.125,-0.28125 -2.0625,-0.0937 -5.625,-0.0937 -10.5937,0 -16.9687,6.1875 -6.2813,6.09375 -6.2813,16.5 v 43.96875 z m -25.2188,-96.375 v 75.84375 q 0,3.75 0.375,8.8125 0.375,4.96875 1.2188,11.71875 h -35.9063 l -0.5625,-14.0625 q -4.3125,7.5 -12.5625,11.90625 -8.25,4.3125 -18.1875,4.3125 -17.62499,0 -26.81249,-9.28125 -9.09375,-9.28125 -9.09375,-27.28125 v -61.96875 h 35.53124 v 48.75 q 0,16.125 3.2813,21.65625 3.2812,5.4375 11.3437,5.4375 7.5,0 11.7188,-5.34375 4.2187,-5.4375 4.2187,-15.1875 v -55.3125 z m -45.2812,-16.6875 v -25.40625 h 23.625 v 25.40625 z m -33.93754,0 v -25.40625 h 23.43754 v 25.40625 z m -157.125,113.0625 v -31.3125 l 71.4375,-80.4375 h -66.28125 v -26.53125 h 111 v 30 l -73.3125,81.75 h 74.0625 v 26.53125 z" />
    </g>
  </g>
  <flowRoot
     xml:space="preserve"
     id="flowRoot834"
     style="font-style:normal;font-weight:normal;font-size:40px;line-height:1.25;font-family:sans-serif;letter-spacing:0px;word-spacing:0px;fill:#000000;fill-opacity:1;stroke:none"
     transform="translate(-0.85600411,-363.38277)"><flowRegion
       id="flowRegion836"><rect
         id="rect838"
         width="95.457626"
         height="108.47458"
         x="817.89832"
         y="282.03391" /></flowRegion><flowPara
       id="flowPara840"></flowPara></flowRoot></svg>
